<svg width="14" height="14" viewBox="0 0 14 14" fill="none" xmlns="http://www.w3.org/2000/svg">
<path d="M7 7C7.60571 7 8.19781 6.82039 8.70144 6.48388C9.20506 6.14737 9.59759 5.66907 9.82938 5.10947C10.0612 4.54987 10.1218 3.9341 10.0037 3.34004C9.88549 2.74597 9.59381 2.20029 9.16552 1.77199C8.73722 1.34369 8.19153 1.05201 7.59747 0.933846C7.0034 0.815679 6.38763 0.876327 5.82803 1.10812C5.26843 1.33991 4.79014 1.73244 4.45362 2.23607C4.11711 2.73969 3.9375 3.3318 3.9375 3.9375C3.9375 4.74973 4.26016 5.52869 4.83449 6.10302C5.40882 6.67735 6.18777 7 7 7ZM7 1.75C7.43265 1.75 7.85558 1.8783 8.21531 2.11866C8.57504 2.35903 8.85542 2.70067 9.02099 3.10038C9.18655 3.50009 9.22987 3.93993 9.14547 4.36426C9.06106 4.78859 8.85272 5.17837 8.5468 5.4843C8.24087 5.79022 7.85109 5.99856 7.42676 6.08297C7.00243 6.16737 6.56259 6.12405 6.16288 5.95849C5.76317 5.79292 5.42153 5.51254 5.18116 5.15281C4.9408 4.79308 4.8125 4.37015 4.8125 3.9375C4.8125 3.35734 5.04297 2.80094 5.4532 2.39071C5.86344 1.98047 6.41984 1.75 7 1.75Z" fill="white"/>
<path d="M7.4375 7.875H6.5625C5.28615 7.875 4.06207 8.38203 3.15955 9.28455C2.25703 10.1871 1.75 11.4111 1.75 12.6875C1.75 12.8035 1.79609 12.9148 1.87814 12.9969C1.96019 13.0789 2.07147 13.125 2.1875 13.125H11.8125C11.9285 13.125 12.0398 13.0789 12.1219 12.9969C12.2039 12.9148 12.25 12.8035 12.25 12.6875C12.25 11.4111 11.743 10.1871 10.8405 9.28455C9.93793 8.38203 8.71385 7.875 7.4375 7.875ZM2.65125 12.25C2.75883 11.2878 3.21716 10.3989 3.93867 9.75328C4.66018 9.10764 5.59429 8.75046 6.5625 8.75H7.4375C8.40571 8.75046 9.33982 9.10764 10.0613 9.75328C10.7828 10.3989 11.2412 11.2878 11.3488 12.25H2.65125Z" fill="white"/>
</svg>
