<svg width="40" height="40" viewBox="0 0 40 40" fill="none" xmlns="http://www.w3.org/2000/svg">
<path d="M20 40C31.0457 40 40 31.0457 40 20C40 8.95431 31.0457 0 20 0C8.95431 0 0 8.95431 0 20C0 31.0457 8.95431 40 20 40Z" fill="#E60023"/>
<path d="M20.3088 10.9077C14.7516 10.9077 11.8605 14.6138 11.8605 18.6882C11.8605 20.5784 12.8242 22.9133 14.454 23.6538C14.6772 23.8026 14.8261 23.7282 14.8261 23.5049L15.1981 22.0984C15.2354 21.9124 15.2354 21.8007 15.1237 21.7263C14.4878 20.8693 14.1494 19.8279 14.16 18.7607C14.16 15.9086 16.3088 13.2035 19.9405 13.2035C23.1274 13.2035 25.3507 15.3152 25.3507 18.3905C25.3507 21.8733 23.5721 24.3198 21.2744 24.3198C20.9791 24.3249 20.6864 24.2637 20.418 24.1406C20.1495 24.0174 19.9121 23.8356 19.7233 23.6084C19.5346 23.3812 19.3992 23.1146 19.3273 22.8281C19.2554 22.5416 19.2488 22.2427 19.3079 21.9533C19.68 20.4333 20.4242 18.8407 20.4242 17.73C20.4242 16.6919 19.9051 15.8696 18.7926 15.8696C17.533 15.8696 16.4223 17.2035 16.4223 18.9821C16.4081 19.6431 16.5349 20.2996 16.7944 20.9077L15.3061 27.2817C15.0847 28.4296 15.1963 30.0984 15.3061 31.0975C15.3228 31.2724 15.4102 31.5775 15.6335 31.6203C15.7285 31.627 15.8235 31.6062 15.907 31.5604C15.9905 31.5145 16.059 31.4455 16.1042 31.3617C16.6623 30.4705 17.4586 29.01 17.7526 27.9105L18.6419 24.8352C19.0493 25.6519 20.2716 26.3235 21.5312 26.3235C25.4586 26.3235 28.2009 22.7663 28.2009 18.3235C28.2009 14.0947 24.7554 10.9077 20.3088 10.9077Z" fill="white"/>
</svg>
