<svg width="40" height="40" viewBox="0 0 40 40" fill="none" xmlns="http://www.w3.org/2000/svg">
<path d="M20 40C31.0457 40 40 31.0457 40 20C40 8.95431 31.0457 0 20 0C8.95431 0 0 8.95431 0 20C0 31.0457 8.95431 40 20 40Z" fill="black"/>
<path d="M17.5442 18.0856V17.2428C17.2518 17.1969 16.9565 17.1714 16.6605 17.1665C15.2646 17.1642 13.9045 17.6076 12.7783 18.4323C11.6521 19.2569 10.8186 20.4196 10.3994 21.7511C9.98015 23.0825 9.99704 24.513 10.4476 25.8341C10.8982 27.1553 11.7588 28.298 12.9042 29.0958C12.0414 28.1728 11.4642 27.0198 11.2424 25.7759C11.0206 24.5321 11.1637 23.2506 11.6544 22.0863C12.1451 20.922 12.9623 19.9246 14.0075 19.2147C15.0527 18.5047 16.281 18.1126 17.5442 18.0856Z" fill="#25F4EE"/>
<path d="M17.7024 27.6258C18.4736 27.6247 19.2147 27.3262 19.7716 26.7926C20.3284 26.259 20.6581 25.5312 20.6921 24.7607V10.4779H23.2968C23.2441 10.1795 23.2192 9.87678 23.2224 9.57373H19.6577V23.8416C19.6293 24.6159 19.302 25.3491 18.7445 25.8871C18.187 26.4252 17.4427 26.7263 16.6679 26.7272C16.187 26.7238 15.7138 26.6058 15.2875 26.383C15.564 26.7663 15.9273 27.0787 16.3476 27.2947C16.768 27.5107 17.2335 27.6242 17.7061 27.6258H17.7024ZM28.1731 15.3244V14.53C27.2126 14.5303 26.2734 14.2468 25.4735 13.7151C26.1748 14.5304 27.1224 15.0953 28.1731 15.3244Z" fill="#25F4EE"/>
<path d="M25.4754 13.7168C24.6875 12.8196 24.253 11.6663 24.2531 10.4722H23.3005C23.4232 11.1325 23.6794 11.7609 24.0533 12.3188C24.4273 12.8767 24.9112 13.3524 25.4754 13.7168ZM16.6605 20.7364C15.9922 20.7394 15.344 20.9658 14.8192 21.3797C14.2944 21.7936 13.9231 22.3711 13.7644 23.0203C13.6057 23.6695 13.6687 24.3532 13.9433 24.9625C14.2179 25.5719 14.6885 26.0718 15.28 26.3829C14.9566 25.937 14.7627 25.4104 14.7198 24.8612C14.6769 24.312 14.7866 23.7617 15.0369 23.271C15.2872 22.7802 15.6682 22.3683 16.1379 22.0805C16.6077 21.7928 17.1478 21.6405 17.6986 21.6405C17.9983 21.6449 18.2959 21.6919 18.5824 21.7801V18.1484C18.2899 18.1041 17.9945 18.0811 17.6986 18.0796H17.5405V20.8368C17.2527 20.7586 16.9549 20.7235 16.6568 20.7326L16.6605 20.7364Z" fill="#FE2C55"/>
<path d="M28.1731 15.3242V18.0851C26.3954 18.0818 24.6639 17.5187 23.2242 16.4758V23.7317C23.2227 24.9307 22.8925 26.1065 22.2695 27.131C21.6465 28.1555 20.7545 28.9896 19.6905 29.5426C18.6266 30.0956 17.4314 30.3463 16.2349 30.2674C15.0384 30.1886 13.8864 29.7832 12.9042 29.0954C13.8005 30.0596 14.9665 30.7315 16.2502 31.0233C17.5339 31.3152 18.8757 31.2135 20.1008 30.7315C21.3258 30.2495 22.3772 29.4096 23.1179 28.3213C23.8586 27.2329 24.2541 25.9467 24.2531 24.6303V17.4005C25.6981 18.4359 27.4317 18.9916 29.2094 18.9893V15.4414C28.8611 15.4403 28.5139 15.4035 28.1731 15.3317V15.3242Z" fill="#FE2C55"/>
<path d="M23.2242 23.7317V16.4759C24.6688 17.5121 26.4028 18.0673 28.1805 18.0629V15.3038C27.1301 15.0819 26.1802 14.525 25.4735 13.7168C24.91 13.3519 24.4266 12.876 24.053 12.3182C23.6794 11.7603 23.4234 11.1322 23.3005 10.4722H20.6959V24.7605C20.6703 25.3823 20.4517 25.9806 20.0705 26.4724C19.6893 26.9643 19.1643 27.3252 18.5686 27.505C17.9729 27.6848 17.336 27.6746 16.7463 27.4759C16.1566 27.2771 15.6435 26.8996 15.2782 26.3959C14.6876 26.0844 14.218 25.5844 13.9441 24.9755C13.6701 24.3666 13.6075 23.6836 13.7661 23.035C13.9247 22.3864 14.2955 21.8094 14.8196 21.3956C15.3437 20.9818 15.9909 20.755 16.6587 20.7512C16.9584 20.7532 17.2562 20.7996 17.5424 20.8889V18.0852C16.2704 18.1125 15.0338 18.5083 13.9823 19.2245C12.9308 19.9407 12.1097 20.9466 11.6185 22.1201C11.1274 23.2937 10.9872 24.5846 11.2151 25.8362C11.443 27.0879 12.0291 28.2465 12.9024 29.1717C14.0113 29.9225 15.3252 30.3124 16.6642 30.288C18.403 30.2865 20.0701 29.5954 21.2999 28.3663C22.5297 27.1372 23.2218 25.4704 23.2242 23.7317Z" fill="white"/>
</svg>
