<svg width="40" height="40" viewBox="0 0 40 40" fill="none" xmlns="http://www.w3.org/2000/svg">
<path d="M20 40C31.0457 40 40 31.0457 40 20C40 8.95431 31.0457 0 20 0C8.95431 0 0 8.95431 0 20C0 31.0457 8.95431 40 20 40Z" fill="#0077FF"/>
<path d="M20.733 27.3751C12.9786 27.3751 8.55812 22.0578 8.37207 13.2095H12.2549C12.3832 19.7025 15.2465 22.4541 17.5144 23.0216V13.2095H21.1739V18.8095C23.4065 18.5695 25.7674 16.0188 26.56 13.2095H30.2195C29.6093 16.6681 27.0567 19.2206 25.2428 20.2699C26.6615 20.9745 27.9145 21.9721 28.919 23.1969C29.9235 24.4218 30.6566 25.8458 31.0697 27.3751H27.0437C26.1786 24.6811 24.0223 22.5974 21.1739 22.3146V27.3751H20.733Z" fill="white"/>
</svg>
