<svg width="40" height="40" viewBox="0 0 40 40" fill="none" xmlns="http://www.w3.org/2000/svg">
<path d="M20 40C31.0457 40 40 31.0457 40 20C40 8.95431 31.0457 0 20 0C8.95431 0 0 8.95431 0 20C0 31.0457 8.95431 40 20 40Z" fill="#25D366"/>
<path d="M10.2158 29.9537L11.6205 24.8263C10.5338 22.9393 10.0999 20.7466 10.3862 18.588C10.6724 16.4294 11.6627 14.4255 13.2037 12.887C14.7446 11.3485 16.75 10.3613 18.9091 10.0785C21.0681 9.79562 23.2602 10.2329 25.1454 11.3226C27.0306 12.4123 28.5037 14.0934 29.3364 16.1054C30.169 18.1174 30.3146 20.3479 29.7506 22.4511C29.1866 24.5543 27.9446 26.4127 26.217 27.7382C24.4894 29.0637 22.3728 29.7823 20.1954 29.7826C18.5436 29.7816 16.9184 29.3671 15.4679 28.577L10.2158 29.9537ZM15.7042 26.7909L16.0056 26.977C17.273 27.7275 18.7187 28.124 20.1916 28.1249C22.0157 28.1252 23.7881 27.5194 25.2303 26.4026C26.6725 25.2859 27.7026 23.7215 28.1588 21.9554C28.615 20.1893 28.4713 18.3217 27.7504 16.6462C27.0294 14.9707 25.7721 13.5823 24.1761 12.6993C22.58 11.8162 20.7358 11.4886 18.9333 11.768C17.1308 12.0473 15.4722 12.9178 14.2183 14.2425C12.9645 15.5673 12.1864 17.2711 12.0064 19.0862C11.8265 20.9014 12.2548 22.7249 13.2242 24.27L13.4102 24.5807L12.5786 27.6151L15.7042 26.7909Z" fill="white"/>
<path fill-rule="evenodd" clip-rule="evenodd" d="M25.1795 22.2404C25.1182 22.1362 24.9526 22.0748 24.7051 21.952C24.4577 21.8292 23.2428 21.2302 23.0158 21.1464C22.7889 21.0627 22.6251 21.0237 22.4577 21.2711C22.2902 21.5185 21.8195 22.0748 21.6763 22.2404C21.533 22.406 21.3861 22.4264 21.1405 22.3018C20.4153 22.0106 19.7461 21.5957 19.1628 21.0758C18.6223 20.5758 18.1589 19.9983 17.7879 19.3623C17.6428 19.1148 17.7712 18.9902 17.8958 18.8581C18.0205 18.726 18.1433 18.5678 18.2679 18.4246C18.3702 18.2998 18.4536 18.1606 18.5154 18.0116C18.5479 17.9432 18.5631 17.8679 18.5595 17.7923C18.556 17.7166 18.5337 17.6431 18.4949 17.5781C18.4335 17.4553 17.9368 16.2385 17.7321 15.7437C17.5275 15.2488 17.3284 15.3269 17.174 15.3176C17.0195 15.3083 16.8651 15.3176 16.7014 15.3176C16.5743 15.3197 16.4489 15.3484 16.3336 15.402C16.2182 15.4555 16.1154 15.5326 16.0316 15.6283C15.7542 15.8914 15.5341 16.209 15.3852 16.5612C15.2364 16.9133 15.1619 17.2925 15.1665 17.6748C15.1665 18.8916 16.0521 20.0674 16.1768 20.233C16.3014 20.3985 17.92 22.8953 20.4 23.9651C20.8605 24.1637 21.3312 24.3376 21.8102 24.486C22.3146 24.6392 22.8478 24.6729 23.3674 24.5846C23.8419 24.5139 24.8298 23.9855 25.0419 23.4088C25.254 22.832 25.2409 22.3427 25.1795 22.2404Z" fill="white"/>
</svg>
