<svg width="516" height="287" viewBox="0 0 516 287" fill="none" xmlns="http://www.w3.org/2000/svg">
<g clip-path="url(#clip0_213_1499)">
<path d="M78.1389 176.543C71.569 175.587 65.311 171.614 61.0183 165.684C56.0252 158.885 52.5075 145.078 59.2271 138.001C61.2254 135.896 63.8728 134.808 66.9149 134.844C74.565 134.925 82.3152 142.116 86.2275 146.391C87.2499 147.529 88.3453 148.637 89.364 149.727C95.8319 156.467 103.116 164.088 96.7836 170.756C96.3021 171.264 95.7688 171.774 95.0794 172.247C89.9257 175.975 84.083 177.442 78.1389 176.543ZM140.159 120.45C138.374 120.98 136.813 121.96 135.513 123.329C129.686 129.465 130.387 142.165 131.673 146.425C134.508 156.011 138.089 167.944 152.43 167.108C157.765 166.8 162.356 164.637 166.064 160.733C167.653 159.059 169.064 157.063 170.241 154.788C172.949 149.675 171.669 145.507 169.737 139.203L169.394 138.116C167.861 132.989 164.685 129.437 159.721 125.075C155.403 121.283 149.967 117.48 140.159 120.45ZM119.421 146.663C119.786 146.33 120.099 146 120.509 145.615C128.96 136.715 123.546 123.931 114.922 115.81C109.85 111.052 102.202 108.192 94.9552 108.351C89.9467 108.475 85.7803 110.036 83.2258 112.726C76.0753 120.257 83.9169 128.686 90.8264 136.14L92.6435 138.089C99.8408 145.909 105.44 149.49 110.843 149.773C113.972 149.924 116.937 148.867 119.421 146.663ZM114.536 201.866C114.335 198.838 112.515 188.595 98.1592 183.06C93.288 181.19 78.3015 179.405 71.8034 186.249C71.2015 186.883 70.6799 187.581 70.2927 188.303C65.4243 197.093 76.2809 209.965 80.5487 213.407C86.503 218.21 93.3824 219.818 99.9274 217.978C101.941 217.408 107.056 215.673 110.766 211.765C113.508 208.873 114.781 205.471 114.536 201.866ZM169.623 171.663C161.767 172.674 149.879 174.23 140.61 173.067C139.612 172.933 138.555 172.708 137.421 172.46C133.109 171.49 126.576 170.031 122.245 174.592C122.028 174.82 121.839 175.071 121.577 175.347C119.138 178.529 119.728 182.234 120.557 187.335C121.484 193.008 122.775 200.766 121.114 212.765C119.324 225.564 124.232 232.608 138.119 237.137C146.597 239.905 154.23 238.047 160.225 231.734C163.574 228.207 165.805 224.007 167.387 220.94C168.001 219.778 168.753 218.374 168.918 218.149C169.702 217.523 172.51 216.117 175.01 214.869C180.796 211.964 188.036 208.361 191.648 204.558C197.402 198.498 197.53 188.885 194.634 182.613C192.46 177.949 188.853 170.159 176.093 170.922C174.644 171.011 172.404 171.309 169.623 171.663Z" fill="#A8D8C4"/>
</g>
<g clip-path="url(#clip1_213_1499)">
<path d="M437.36 118.477C443.93 117.521 450.188 113.548 454.481 107.618C459.474 100.819 462.991 87.0119 456.272 79.9351C454.273 77.8305 451.626 76.742 448.584 76.7779C440.934 76.859 433.184 84.0506 429.271 88.3257C428.249 89.4637 427.154 90.5712 426.135 91.6615C419.667 98.4009 412.383 106.022 418.715 112.691C419.197 113.198 419.73 113.708 420.419 114.182C425.573 117.91 431.416 119.376 437.36 118.477ZM375.34 62.384C377.125 62.9144 378.686 63.894 379.986 65.2632C385.813 71.3994 385.112 84.099 383.826 88.3596C380.99 97.9454 377.41 109.878 363.069 109.043C357.734 108.734 353.143 106.572 349.435 102.667C347.846 100.993 346.435 98.9973 345.258 96.7226C342.55 91.6089 343.83 87.4416 345.762 81.1372L346.105 80.0505C347.638 74.923 350.814 71.3715 355.778 67.0092C360.096 63.2176 365.532 59.4146 375.34 62.384ZM396.078 88.597C395.713 88.2643 395.4 87.9347 394.99 87.5491C386.539 78.6491 391.953 65.8649 400.577 57.7445C405.649 52.9861 413.297 50.1264 420.544 50.2853C425.552 50.4096 429.719 51.9698 432.273 54.6601C439.424 62.1909 431.582 70.6203 424.672 78.0741L422.855 80.0233C415.658 87.8436 410.059 91.4239 404.655 91.7078C401.527 91.8584 398.562 90.8017 396.078 88.597ZM400.963 143.801C401.164 140.773 402.984 130.529 417.34 124.994C422.211 123.125 437.197 121.339 443.695 128.183C444.297 128.817 444.819 129.516 445.206 130.238C450.075 139.027 439.218 151.899 434.95 155.341C428.996 160.144 422.116 161.753 415.571 159.912C413.558 159.342 408.443 157.607 404.733 153.7C401.991 150.807 400.718 147.406 400.963 143.801ZM345.876 113.597C353.731 114.609 365.62 116.164 374.889 115.001C375.887 114.868 376.944 114.642 378.078 114.394C382.39 113.424 388.923 111.965 393.254 116.527C393.47 116.755 393.659 117.005 393.922 117.282C396.361 120.464 395.771 124.168 394.941 129.27C394.014 134.943 392.724 142.7 394.385 154.699C396.175 167.498 391.267 174.542 377.38 179.071C368.902 181.84 361.269 179.982 355.274 173.668C351.925 170.141 349.693 165.941 348.111 162.874C347.497 161.713 346.746 160.308 346.581 160.083C345.797 159.458 342.989 158.051 340.489 156.803C334.703 153.898 327.463 150.295 323.851 146.492C318.097 140.432 317.969 130.819 320.865 124.547C323.039 119.883 326.646 112.093 339.406 112.856C340.855 112.946 343.095 113.244 345.876 113.597Z" fill="#A8D8C4"/>
</g>
<defs>
<clipPath id="clip0_213_1499">
<rect width="167.834" height="170.789" fill="white" transform="matrix(0.688562 -0.725178 0.778357 0.627822 0 179.775)"/>
</clipPath>
<clipPath id="clip1_213_1499">
<rect width="167.834" height="170.789" fill="white" transform="matrix(-0.688562 -0.725178 -0.778357 0.627822 515.499 121.709)"/>
</clipPath>
</defs>
</svg>
